<mxfile host="app.diagrams.net" modified="2023-01-10T11:46:12.122Z" agent="5.0 (X11)" etag="pEYsEtWP_zjiLjRszZaH" version="20.0.1" type="github">
  <diagram id="2tS2xlYH4pNznH7XOV93" name="Page-1">
    <mxGraphModel dx="1386" dy="712" grid="1" gridSize="10" guides="1" tooltips="1" connect="1" arrows="1" fold="1" page="1" pageScale="1" pageWidth="850" pageHeight="1100" math="0" shadow="0">
      <root>
        <mxCell id="0" />
        <mxCell id="1" parent="0" />
        <mxCell id="AOGp8GGhP-Rs6fDEoC5o-4" style="edgeStyle=orthogonalEdgeStyle;rounded=0;orthogonalLoop=1;jettySize=auto;html=1;entryX=0.5;entryY=0;entryDx=0;entryDy=0;" edge="1" parent="1" source="AOGp8GGhP-Rs6fDEoC5o-2" target="AOGp8GGhP-Rs6fDEoC5o-3">
          <mxGeometry relative="1" as="geometry" />
        </mxCell>
        <mxCell id="AOGp8GGhP-Rs6fDEoC5o-2" value="server::server::run_tikv()" style="strokeWidth=2;html=1;shape=mxgraph.flowchart.start_1;whiteSpace=wrap;" vertex="1" parent="1">
          <mxGeometry x="280" y="70" width="180" height="80" as="geometry" />
        </mxCell>
        <mxCell id="AOGp8GGhP-Rs6fDEoC5o-6" style="edgeStyle=orthogonalEdgeStyle;rounded=0;orthogonalLoop=1;jettySize=auto;html=1;entryX=0.5;entryY=0;entryDx=0;entryDy=0;" edge="1" parent="1" source="AOGp8GGhP-Rs6fDEoC5o-3" target="AOGp8GGhP-Rs6fDEoC5o-5">
          <mxGeometry relative="1" as="geometry" />
        </mxCell>
        <mxCell id="AOGp8GGhP-Rs6fDEoC5o-3" value="server::server::run_impl()" style="rounded=1;whiteSpace=wrap;html=1;absoluteArcSize=1;arcSize=14;strokeWidth=2;" vertex="1" parent="1">
          <mxGeometry x="275" y="200" width="190" height="40" as="geometry" />
        </mxCell>
        <mxCell id="AOGp8GGhP-Rs6fDEoC5o-8" style="edgeStyle=orthogonalEdgeStyle;rounded=0;orthogonalLoop=1;jettySize=auto;html=1;entryX=0.5;entryY=0;entryDx=0;entryDy=0;" edge="1" parent="1" source="AOGp8GGhP-Rs6fDEoC5o-5" target="AOGp8GGhP-Rs6fDEoC5o-7">
          <mxGeometry relative="1" as="geometry" />
        </mxCell>
        <mxCell id="AOGp8GGhP-Rs6fDEoC5o-5" value="TikvServer&amp;lt;RaftEngine&amp;gt;::init&amp;lt;KvFormat&amp;gt;()" style="rounded=1;whiteSpace=wrap;html=1;absoluteArcSize=1;arcSize=14;strokeWidth=2;" vertex="1" parent="1">
          <mxGeometry x="227.5" y="280" width="285" height="40" as="geometry" />
        </mxCell>
        <mxCell id="AOGp8GGhP-Rs6fDEoC5o-10" style="edgeStyle=orthogonalEdgeStyle;rounded=0;orthogonalLoop=1;jettySize=auto;html=1;entryX=0.5;entryY=0;entryDx=0;entryDy=0;" edge="1" parent="1" source="AOGp8GGhP-Rs6fDEoC5o-7" target="AOGp8GGhP-Rs6fDEoC5o-9">
          <mxGeometry relative="1" as="geometry" />
        </mxCell>
        <mxCell id="AOGp8GGhP-Rs6fDEoC5o-7" value="TikvServer&amp;lt;RaftEngine&amp;gt;::init_servers&amp;lt;KvFormat&amp;gt;()" style="rounded=1;whiteSpace=wrap;html=1;absoluteArcSize=1;arcSize=14;strokeWidth=2;" vertex="1" parent="1">
          <mxGeometry x="203.75" y="360" width="332.5" height="40" as="geometry" />
        </mxCell>
        <mxCell id="AOGp8GGhP-Rs6fDEoC5o-9" value="TikvServer&amp;lt;RaftEngine&amp;gt;::run_server()" style="rounded=1;whiteSpace=wrap;html=1;absoluteArcSize=1;arcSize=14;strokeWidth=2;" vertex="1" parent="1">
          <mxGeometry x="203.75" y="440" width="332.5" height="40" as="geometry" />
        </mxCell>
      </root>
    </mxGraphModel>
  </diagram>
</mxfile>
